# xmcd
#
# Track frame offsets: 
#        150
#        16359
#        26455
#        39360
#        57198
#        78573
#        89973
#        103264
#        116701
#        130243
#        140184
#        155348
#        168111
#        186537
#        200236
#        209502
#
# Disc length: 2941 seconds
#
# Revision: 2
# Processed by: cddbd v1.5.2PL0 Copyright (c) Steve Scherf et al.
# Submitted via: ExactAudioCopy v0.99pb5
#
DISCID=f00b7b10
DTITLE=Mississippi Fred McDowell - Heroes Of The Blues
DYEAR=2003
DGENRE=Blues
TTITLE0=Write Me A Few Lines
TTITLE1=Trouble Everywhere I Go
TTITLE2=Shake 'em On Down
TTITLE3=Louise
TTITLE4=61 Highway
TTITLE5=My Baby
TTITLE6=Been Drinkin' Water Out Of A Hollow Log
TTITLE7=Get Right, Church
TTITLE8=On The Frisco Line
TTITLE9=Pea Vine Special
TTITLE10=You Gotta Move
TTITLE11=Drop Down Mama
TTITLE12=Red Cross Store
TTITLE13=Keep Your Lamp Trimmed And Burning
TTITLE14=Kokomo Blues
TTITLE15=Jesus Gonna Make Up My Dying Bed
EXTD=YEAR: 2003
EXTT0=
EXTT1=
EXTT2=
EXTT3=
EXTT4=
EXTT5=
EXTT6=
EXTT7=
EXTT8=
EXTT9=
EXTT10=
EXTT11=
EXTT12=
EXTT13=
EXTT14=
EXTT15=
PLAYORDER=
